<?xml version="1.0" encoding="UTF-8"?>
<svg version="1.1" xmlns="http://www.w3.org/2000/svg" width="512" height="512">
<path d="M0 0 C2.49038259 -0.0038958 4.98076453 -0.00823226 7.47114563 -0.01298523 C12.67471476 -0.02041573 17.878216 -0.02017972 23.08178711 -0.01489258 C29.70026465 -0.00910924 36.31846132 -0.02601744 42.93689251 -0.04923725 C48.07694584 -0.06407965 53.2169332 -0.06483197 58.35700417 -0.06172752 C60.7946713 -0.0622357 63.23234263 -0.06737702 65.66998863 -0.07753944 C76.90541984 -0.11863111 88.05225889 -0.07516629 99.19458008 1.51098633 C99.95815417 1.61052707 100.72172827 1.71006781 101.50844097 1.81262493 C106.58675535 2.66037212 109.12859716 4.33909483 112.36328125 8.30078125 C114.1283751 11.83096896 113.26355529 15.560206 112.36328125 19.30078125 C109.31041319 24.07088759 105.29661282 27.00510102 100.81640625 30.40234375 C77.34886808 48.56352775 62.72435217 74.59604918 56.36328125 103.30078125 C56.02490234 104.75871094 56.02490234 104.75871094 55.6796875 106.24609375 C52.41561738 123.12921505 53.25374048 141.64456092 57.36328125 158.30078125 C57.82154297 160.17443359 57.82154297 160.17443359 58.2890625 162.0859375 C60.97641561 171.69200335 65.09559578 180.39512551 69.70507812 189.23291016 C72.59321934 194.93313689 74.14476365 198.89403363 73.36328125 205.30078125 C72.27919337 208.61070915 70.57730482 211.46387238 67.65299129 213.47980022 C64.52439712 214.60156517 61.80176576 214.55597686 58.47792053 214.56147766 C57.78538773 214.56530321 57.09285494 214.56912876 56.3793363 214.57307023 C54.05888459 214.58338806 51.7386809 214.57941031 49.41821289 214.57543945 C47.75400565 214.57978692 46.08980041 214.58497018 44.42559814 214.59092712 C39.90235662 214.60433276 35.37919858 214.60489347 30.85594106 214.60236382 C27.07428931 214.60129398 23.29265443 214.60617844 19.5110063 214.61096925 C10.57950895 214.62207238 1.64805365 214.62249899 -7.28344727 214.61645508 C-16.4753105 214.61043003 -25.66702008 214.62268698 -34.8588571 214.64402515 C-42.76311938 214.66169487 -50.66733303 214.66763359 -58.57161433 214.6643874 C-63.2864474 214.66258106 -68.00117117 214.66514448 -72.71598625 214.67910194 C-77.15901945 214.69176123 -81.60181564 214.68966031 -86.04484558 214.67669106 C-87.66645961 214.67434227 -89.28809073 214.67699825 -90.90968513 214.68531418 C-110.11116513 214.77659866 -126.28483862 210.66529877 -141.1015625 197.8125 C-154.08267145 184.9514013 -160.95874467 169.09195122 -161.05395508 150.88574219 C-161.04001709 149.66145508 -161.0260791 148.43716797 -161.01171875 147.17578125 C-161.00229248 145.89477539 -160.99286621 144.61376953 -160.9831543 143.29394531 C-160.82995487 133.64299206 -160.00438099 124.64731889 -157.63671875 115.30078125 C-157.38728516 114.28298584 -157.38728516 114.28298584 -157.1328125 113.24462891 C-147.30470231 73.88668765 -121.57158908 40.57229034 -86.94335938 19.72875977 C-72.45723294 11.36335131 -56.09504079 5.33866029 -39.63671875 2.30078125 C-38.79045929 2.13446701 -37.94419983 1.96815277 -37.07229614 1.79679871 C-24.77858138 -0.297139 -12.43339535 -0.00814503 0 0 Z " fill="#000000" transform="translate(224.63671875,276.69921875)"/>
<path d="M0 0 C19.37115368 16.64041836 31.89714881 36.0650185 38.3125 60.6875 C38.68181641 62.08742187 38.68181641 62.08742187 39.05859375 63.515625 C45.08728997 91.95444028 37.89205062 121.65947984 22.3125 145.6875 C5.99606746 168.21257507 -16.00550487 182.73554557 -42.6875 189.6875 C-44.08742188 190.05681641 -44.08742188 190.05681641 -45.515625 190.43359375 C-73.95444028 196.46228997 -103.65947984 189.26705062 -127.6875 173.6875 C-150.21257507 157.37106746 -164.73554557 135.36949513 -171.6875 108.6875 C-171.93371094 107.75421875 -172.17992187 106.8209375 -172.43359375 105.859375 C-178.46228997 77.42055972 -171.26705062 47.71552016 -155.6875 23.6875 C-139.37106746 1.16242493 -117.36949513 -13.36054557 -90.6875 -20.3125 C-89.75421875 -20.55871094 -88.8209375 -20.80492188 -87.859375 -21.05859375 C-57.52573641 -27.48897035 -24.1306824 -19.16763424 0 0 Z " fill="#000000" transform="translate(322.6875,43.3125)"/>
<path d="M0 0 C1.19367188 -0.01675781 2.38734375 -0.03351563 3.6171875 -0.05078125 C9.96570516 0.6066933 14.06990363 3.5104122 18.125 8.3125 C22.33319998 14.57957198 22.66699269 20.19844133 22.515625 27.59375 C22.50996521 28.64784058 22.50430542 29.70193115 22.49847412 30.78796387 C22.47621734 34.12995254 22.42603977 37.47083947 22.375 40.8125 C22.35492123 43.0885261 22.33667288 45.36456913 22.3203125 47.640625 C22.2763878 53.19828782 22.20958337 58.75531517 22.125 64.3125 C22.72555206 64.30583817 23.32610413 64.29917633 23.94485474 64.29231262 C30.20667151 64.22583922 36.4683877 64.18064953 42.73046875 64.14770508 C45.06612216 64.13263739 47.40174737 64.11217951 49.73730469 64.08618164 C53.09837819 64.04971042 56.45907692 64.0327531 59.8203125 64.01953125 C60.86115997 64.00404739 61.90200745 63.98856354 62.97439575 63.97261047 C69.94820097 63.97099894 74.26871459 64.93226216 79.75 69.5 C84.83253758 75.51879451 86.8451236 80.67864959 86.50390625 88.63671875 C85.53450791 95.48246991 82.22349851 99.75040611 77.00390625 104.0859375 C73.16674883 106.59085939 69.71044827 107.56361054 65.15112305 107.53955078 C63.71019539 107.53932419 63.71019539 107.53932419 62.24015808 107.53909302 C60.70395561 107.52360916 60.70395561 107.52360916 59.13671875 107.5078125 C58.07838333 107.5049826 57.02004791 107.50215271 55.92964172 107.49923706 C52.55714502 107.4880629 49.18491613 107.46296307 45.8125 107.4375 C43.5227903 107.42746664 41.23307643 107.41834141 38.94335938 107.41015625 C33.33714857 107.3881326 27.73109342 107.35468236 22.125 107.3125 C22.13388245 107.89608276 22.14276489 108.47966553 22.1519165 109.08093262 C22.24073525 115.18080809 22.30087693 121.28049844 22.34472656 127.38085938 C22.36478317 129.65437284 22.39203538 131.9278351 22.42675781 134.20117188 C22.47553712 137.47799349 22.49802897 140.75413025 22.515625 144.03125 C22.53627014 145.03990112 22.55691528 146.04855225 22.57818604 147.08776855 C22.58047808 154.37372726 21.19455393 159.75538828 16.37890625 165.3359375 C15.82074219 165.78195312 15.26257813 166.22796875 14.6875 166.6875 C13.85412109 167.37972656 13.85412109 167.37972656 13.00390625 168.0859375 C7.3329735 171.78796013 1.71721707 172.15969256 -4.875 171.3125 C-11.99953171 169.05522262 -16.18035508 165.74833309 -19.875 159.3125 C-20.85139431 156.38331707 -20.99636181 154.52224262 -20.98852539 151.47387695 C-20.98844986 150.4930867 -20.98837433 149.51229645 -20.98829651 148.50178528 C-20.98313522 147.44545395 -20.97797394 146.38912262 -20.97265625 145.30078125 C-20.9712413 144.21741989 -20.96982635 143.13405853 -20.96836853 142.01786804 C-20.96276559 138.55355075 -20.95021258 135.0892978 -20.9375 131.625 C-20.93248538 129.27799572 -20.92792241 126.93099044 -20.92382812 124.58398438 C-20.91279521 118.82680092 -20.8960542 113.06965506 -20.875 107.3125 C-21.45414154 107.32360306 -22.03328308 107.33470612 -22.62997437 107.34614563 C-28.69765688 107.45739304 -34.76504631 107.53243621 -40.83349609 107.5871582 C-43.09338157 107.61218909 -45.35318702 107.64622438 -47.61279297 107.68969727 C-50.87487619 107.75085233 -54.13588245 107.77882502 -57.3984375 107.80078125 C-58.89593033 107.83949089 -58.89593033 107.83949089 -60.42367554 107.87898254 C-67.51612349 107.88177195 -72.98185353 106.35967288 -78.875 102.3125 C-84.77966833 96.12731967 -85.28203798 90.05997243 -85.22265625 81.83984375 C-84.60222027 75.54485852 -81.82727506 72.12192567 -77.3125 67.9375 C-73.31914034 65.27526023 -70.68597768 64.06092941 -65.83105469 64.08544922 C-64.32995148 64.08567581 -64.32995148 64.08567581 -62.79852295 64.08590698 C-61.72547913 64.09622955 -60.6524353 64.10655212 -59.546875 64.1171875 C-58.44273254 64.1200174 -57.33859009 64.12284729 -56.20098877 64.12576294 C-52.6755488 64.13695511 -49.15036315 64.16205825 -45.625 64.1875 C-43.23437867 64.19753103 -40.84375336 64.20665667 -38.453125 64.21484375 C-32.59366327 64.2368913 -26.73434981 64.27035947 -20.875 64.3125 C-20.89165459 63.39954163 -20.89165459 63.39954163 -20.90864563 62.46813965 C-21.01963256 56.1087925 -21.09482998 49.7497224 -21.1496582 43.38964844 C-21.17473575 41.01909196 -21.20880632 38.6486123 -21.25219727 36.27832031 C-21.31314397 32.86243695 -21.3412785 29.44757964 -21.36328125 26.03125 C-21.38908768 24.97885132 -21.4148941 23.92645264 -21.44148254 22.84216309 C-21.44405113 16.03780991 -20.31264884 11.56327124 -15.875 6.3125 C-10.73818103 1.55154583 -7.01294988 0.02262242 0 0 Z " fill="#000000" transform="translate(404.875,319.6875)"/>
</svg>
